<svg id="Capa_4" data-name="Capa 4" xmlns="http://www.w3.org/2000/svg" viewBox="0 0 456 456"><defs><style>.cls-1{fill:#fff;}.cls-2{fill:#878787;}.cls-3{fill:#666;}.cls-4{fill:#5fa758;}.cls-5{fill:#3c3c3b;}</style></defs><rect class="cls-1" x="18.81" y="21.07" width="416.82" height="416.82" rx="208.41"/><path class="cls-2" d="M173.27,165.56H156.83v-7.08a7,7,0,0,0-14,0v28.15a7,7,0,0,0,14,0v-7.08h16.44a7,7,0,1,0,0-14Z"/><path class="cls-2" d="M304.69,156.86a7,7,0,0,0-7,7v1.7H281.25a7,7,0,1,0,0,14H297.7v1.71a7,7,0,1,0,14,0v-17.4A7,7,0,0,0,304.69,156.86Z"/><path class="cls-3" d="M276.48,137.46H258.85V127.12a7,7,0,0,0-14,0v10.34H234.22V127.12a7,7,0,1,0-14,0v10.34H209.6V127.12a7,7,0,0,0-14,0v10.34H185a7,7,0,0,0,0,14H195.6V162.3a7,7,0,0,0,14,0V151.46h10.63V162.3a7,7,0,1,0,14,0V151.46h10.63V162.3a7,7,0,0,0,14,0V151.46h17.63a7,7,0,0,0,0-14Z"/><path class="cls-4" d="M143.4,376.56c-18.83,0-35.8-9.6-43.25-24.47a59.21,59.21,0,0,1-6.57-26.61c0-17.85,8.54-30.32,22.48-49.18,14.29-19.34,29.45-38.79,45.06-57.81A41.47,41.47,0,0,0,171,192v-118a7,7,0,0,1,7-7h98.65a7,7,0,0,1,7,7V192a41.52,41.52,0,0,0,9.87,26.5c15.64,19,30.79,38.47,45.05,57.82,13.88,18.84,22.38,31.29,22.33,49.19a59,59,0,0,1-6.52,26.33c-7.4,14.85-24.35,24.46-43.17,24.49l-167.7.24ZM185,81.07V192a55.31,55.31,0,0,1-13,35.35c-15.46,18.84-30.47,38.1-44.63,57.25-13.72,18.57-19.74,28.05-19.74,40.86a45.32,45.32,0,0,0,5.1,20.34c5.09,10.18,17.15,16.75,30.73,16.75h.06l167.7-.25c13.57,0,25.61-6.59,30.67-16.74a45.13,45.13,0,0,0,5-20.12c0-12.84-5.94-22.31-19.6-40.84-14.11-19.16-29.11-38.41-44.59-57.24A55.37,55.37,0,0,1,269.62,192V81.07Z"/><path class="cls-5" d="M281.66,69.22c-8.44-9.33-19.43-16-32.66-19.88a86.31,86.31,0,0,0-21.62-3.4c-.53,0-1.33,0-2.33,0A86.39,86.39,0,0,0,202,49c-12.26,3.44-22.45,9.5-30.29,18a57.43,57.43,0,0,0-14.83,43,7,7,0,0,0,11.64,4.68l13.62-12.15,1.42,3.62,1.93,4.89a7,7,0,0,0,4.81,4.22,6.56,6.56,0,0,0,1.7.22,7,7,0,0,0,4.52-1.66L212,100.77l2.58,3.47,7,9.42a7,7,0,0,0,11.21,0l9.5-12.73,15.41,13.76a7,7,0,0,0,4.67,1.78,6.76,6.76,0,0,0,1.67-.21,7,7,0,0,0,4.88-4.34l3.46-9.25,13.47,12a7,7,0,0,0,11.66-5.3A61,61,0,0,0,281.66,69.22Z"/></svg>